<?xml version="1.0" encoding="utf-8"?>
<!-- Generator: Adobe Illustrator 23.0.1, SVG Export Plug-In . SVG Version: 6.00 Build 0)  -->
<svg version="1.1" id="Livello_1" xmlns="http://www.w3.org/2000/svg" xmlns:xlink="http://www.w3.org/1999/xlink" x="0px" y="0px"
	 viewBox="0 0 595.28 841.89" style="enable-background:new 0 0 595.28 841.89;" xml:space="preserve">
<style type="text/css">
	.st0{fill-rule:evenodd;clip-rule:evenodd;fill:#1C8EC2;}
	.st1{fill-rule:evenodd;clip-rule:evenodd;fill:#0695D4;}
	.st2{fill-rule:evenodd;clip-rule:evenodd;fill:#F5B77E;}
	.st3{fill-rule:evenodd;clip-rule:evenodd;fill:#0F8BCC;}
	.st4{fill-rule:evenodd;clip-rule:evenodd;fill:#077BB5;}
	.st5{fill-rule:evenodd;clip-rule:evenodd;fill:#31A5DD;}
	.st6{fill-rule:evenodd;clip-rule:evenodd;fill:#F6C085;}
	.st7{fill-rule:evenodd;clip-rule:evenodd;fill:#F8C997;}
	.st8{fill-rule:evenodd;clip-rule:evenodd;fill:#BF9240;}
	.st9{fill-rule:evenodd;clip-rule:evenodd;fill:#3F3B3A;}
	.st10{fill-rule:evenodd;clip-rule:evenodd;fill:#D7835C;}
	.st11{fill-rule:evenodd;clip-rule:evenodd;fill:#E5B27E;}
</style>
<polygon class="st0" points="286.19,448.81 285.73,434.07 332.3,434.06 331.86,448.35 "/>
<path class="st1" d="M277.92,479.17c-1.49-1.11-34.66-16.73-34.66-16.73c-14.77,4.87-18.08,38.04-19.59,57.57h35.29L277.92,479.17z"
	/>
<path class="st1" d="M336.71,479.17c1.48-1.11,34.66-16.73,34.66-16.73c14.77,4.87,18.08,38.04,19.59,57.57h-35.29L336.71,479.17z"
	/>
<path class="st2" d="M307.32,426.09h-15.57v9.83c0.01,6.11-1.01,4.84-6.72,8.02c0,0-5.51,4.51-7.18,5.05
	c6.92,22.28,12.48,45.55,26.01,65.64h4.02h4.02c13.53-20.1,17.97-43.36,24.9-65.64c-1.68-0.54-7.18-5.05-7.18-5.05
	c-5.71-3.18-6.72-1.91-6.72-8.02v-9.83H307.32z"/>
<path class="st3" d="M308.71,480.19c0,0-4.86-6.41-7.1-10.04c-6.76-10.98-16.37-26.01-16.59-26.13
	c-8.3,3.78-38.57,15.64-41.96,18.58c2.75,6.02,6.92,30.79,10.53,57.42h53.73h53.73c3.61-26.63,7.78-51.4,10.53-57.42
	c-3.39-2.94-33.66-14.79-41.96-18.58c-0.21,0.12-6.21,15.59-13.19,26.12C313.52,474.51,308.71,480.19,308.71,480.19z"/>
<path class="st4" d="M292.79,457.46c0.84,0,5.53,0.74,5.53,0.74l3.3,11.95l-11.8-5.45L292.79,457.46z"/>
<path class="st5" d="M285.73,434.07l12.58,24.13c0,0-12.96,12.72-12.77,12.16c0.19-0.56-5.81-23.05-5.37-24.24
	C280.63,444.93,285.73,434.07,285.73,434.07z"/>
<path class="st4" d="M325.24,457.45c-0.84,0-5.53,0.74-5.53,0.74l-3.3,11.95l11.8-5.45L325.24,457.45z"/>
<path class="st5" d="M332.3,434.06l-12.58,24.13c0,0,12.95,12.72,12.77,12.16c-0.18-0.56,5.81-23.05,5.37-24.24
	C337.4,444.92,332.3,434.06,332.3,434.06z"/>
<path class="st6" d="M347.47,354.44c-2.23,11.6,5.28,21.27,16.78,23.35c11.5,2.08,22.62-4.21,24.84-15.81
	c2.23-11.6-5.28-22.7-16.78-24.78C360.82,335.11,349.7,342.83,347.47,354.44z"/>
<path class="st6" d="M267.25,354.44c2.23,11.6-5.28,21.27-16.78,23.35c-11.5,2.08-22.62-4.21-24.84-15.81
	c-2.23-11.6,5.28-22.7,16.78-24.78C253.9,335.11,265.02,342.83,267.25,354.44z"/>
<path class="st7" d="M364.73,280.79c-11.23-15.25-28.73-25.26-47.32-26c0,0-0.37-0.02-0.96-0.04l0.02-0.73c0,0-4.51,0.18-9.16,0.36
	c-4.65-0.18-9.16-0.36-9.16-0.36l0.02,0.73c-0.6,0.02-0.96,0.04-0.96,0.04c-18.59,0.74-36.09,10.75-47.32,26
	c-11.23,15.27-12.73,34.49-11.84,52.9c2.28,47.31,6.51,100.29,69.46,100.81c63.14,0.53,66.78-53.84,69.06-100.81
	C377.46,315.28,375.97,296.06,364.73,280.79z"/>
<path class="st8" d="M244.92,348.92c0.83-17.43,1.06-48.97,16.32-48.97c0.39,0,46.38-19.06,99.33-19.06
	c12.19,0,15.21,34.62,15.45,57.4c0.19,19.62-3.5,28.67-2.08,29.28c1.66,0.71,8.45-10.67,8.43-38.34
	c-0.01-12.49-0.32-31.87-11.2-50.18c-3.83-6.44-6.36-14.22-14.25-19.49c-18.63-12.46-58.46-9.62-79.91-2.56
	c-59.32,19.52-38.22,110.33-36.3,110.14C243.04,366.93,244.8,351.33,244.92,348.92z"/>
<path class="st9" d="M299.13,342.03c-0.6-0.68-2.35-2.83-5.03-3.8c-12.61-4.54-47.47-2.66-56.74-0.34c-1.19,0.3-1.32,0.26-1.45,1.07
	c-0.13,0.81-0.17,5.59,0.21,6.31c0.38,0.72,2.22,1.02,3.84,3.41c2.91,4.28,2.7,19.83,9.64,27.19c7.19,7.63,34.44,7.91,41.81-2.25
	c4.87-6.71,7.28-14.17,9.89-21.36c1.58-1.62,2.94-1.75,4.18-1.92c0.77-0.11,1.44-0.13,1.83-0.13c0.4,0,1.07,0.03,1.83,0.13
	c1.24,0.17,2.6,0.3,4.18,1.92c2.61,7.18,5.02,14.65,9.89,21.36c7.37,10.16,34.62,9.88,41.81,2.25c6.94-7.36,6.74-22.91,9.64-27.19
	c1.62-2.39,3.46-2.69,3.84-3.41c0.38-0.73,0.34-5.5,0.21-6.31c-0.13-0.81-0.26-0.77-1.45-1.07c-9.27-2.32-44.13-4.2-56.74,0.34
	c-2.68,0.97-4.44,3.11-5.03,3.8c-1.05,0.41-2.76,0.6-8.19,0.48C301.89,342.63,300.18,342.43,299.13,342.03L299.13,342.03z
	 M364.61,340.36L364.61,340.36c0,0,3.2,0.26,4.56,3.75c1.37,3.5,0.77,11.48,0.04,15.4c-0.73,3.92-2.43,10.07-4.86,13.1
	c-7.52,9.37-32.43,8.26-38.64,0.19c-4.78-6.21-12.94-24.67-2.96-29.92C331.31,338.38,355.89,337.46,364.61,340.36L364.61,340.36z
	 M250.02,340.36L250.02,340.36c8.72-2.91,33.3-1.99,41.85,2.52c9.98,5.25,1.82,23.71-2.96,29.92c-6.2,8.07-31.11,9.18-38.64-0.19
	c-2.43-3.03-4.14-9.17-4.86-13.1c-0.72-3.92-1.32-11.9,0.04-15.4C246.82,340.62,250.02,340.36,250.02,340.36z"/>
<g>
	<path class="st9" d="M272.14,363.92c2.96,0,5.38-2.42,5.38-5.38c0-2.97-2.42-5.38-5.38-5.38c-2.96,0-5.38,2.42-5.38,5.38
		C266.75,361.5,269.17,363.92,272.14,363.92z"/>
	<path class="st9" d="M342.49,363.92c2.97,0,5.38-2.42,5.38-5.38c0-2.97-2.42-5.38-5.38-5.38c-2.97,0-5.38,2.42-5.38,5.38
		C337.11,361.5,339.53,363.92,342.49,363.92z"/>
</g>
<path class="st10" d="M333.22,397.89c-4.94,6.33-14.03,10.57-24.42,10.57c-10.39,0-19.47-4.24-24.41-10.57
	c6.03,4.35,14.45,8.76,24.14,8.76C318.2,406.65,327.19,402.25,333.22,397.89z"/>
<path class="st11" d="M296.47,390.55c-0.06-0.02-0.07-0.07-0.02-0.16c0-0.27,0.15-0.54,0.44-0.79c2.21-4.26,6.56-16.67,8.56-30.33
	c2.19,0.13-2.17,23.24-4.04,28.76c1.89-0.33,4.2-0.52,6.69-0.52c6.43,0,11.65,1.29,11.65,2.88c0,1.59-5.22,2.88-11.65,2.88
	C301.89,393.26,296.81,392.06,296.47,390.55z"/>
<path class="st8" d="M253.11,331.02c-1.74-2.98,7.59-4.39,17.05-4.32c15.86,0.12,24.35,7.87,16.73,7.54
	C281.19,333.99,253.62,331.89,253.11,331.02z"/>
<path class="st8" d="M360.98,330.65c1.74-2.98-7.59-4.39-17.05-4.32c-15.86,0.11-24.35,7.87-16.73,7.54
	C332.9,333.62,360.47,331.52,360.98,330.65z"/>
</svg>
